<svg width="28" height="28" viewBox="0 0 28 28" fill="#949494" xmlns="http://www.w3.org/2000/svg">
<path fill-rule="evenodd" clip-rule="evenodd" d="M26.0001 19.3337C26.6839 19.3337 27.2474 19.8484 27.3244 20.5115L27.3334 20.667V23.3337C27.3334 25.4639 25.6682 27.2052 23.5684 27.3269L23.3334 27.3337H4.66675C2.53651 27.3337 0.7952 25.6684 0.673538 23.5687L0.666748 23.3337V20.667C0.666748 19.9306 1.2637 19.3337 2.00008 19.3337C2.68386 19.3337 3.24742 19.8484 3.32444 20.5115L3.33341 20.667V23.3337C3.33341 24.0174 3.84814 24.581 4.51125 24.658L4.66675 24.667H23.3334C24.0172 24.667 24.5808 24.1523 24.6578 23.4892L24.6667 23.3337V20.667C24.6667 19.9306 25.2637 19.3337 26.0001 19.3337ZM14.0001 0.666992C14.7365 0.666992 15.3334 1.26395 15.3334 2.00033V14.7803L17.0573 13.0575C17.5379 12.5769 18.2942 12.5399 18.8173 12.9466L18.9429 13.0575C19.4235 13.5382 19.4605 14.2945 19.0538 14.8175L18.9429 14.9431L14.9429 18.9431L14.8843 18.9983L14.7938 19.0719L14.6455 19.1674L14.4952 19.2387L14.3547 19.2859L14.1567 19.3245L14.0001 19.3337L13.8998 19.3299L13.7324 19.3067L13.5839 19.2673L13.4358 19.2088L13.3058 19.139L13.1777 19.0499C13.1355 19.0168 13.0952 18.9811 13.0573 18.9431L9.05727 14.9431C8.53657 14.4224 8.53657 13.5782 9.05727 13.0575C9.53792 12.5769 10.2942 12.5399 10.8173 12.9466L10.9429 13.0575L12.6667 14.7803V2.00033C12.6667 1.26395 13.2637 0.666992 14.0001 0.666992Z" />
</svg>
